Patient4_TMGait_0pt6_01_right_14_GRF.mot
version=1
nRows=59
nColumns=19
inDegrees=no
endheader
time	F1x	F1y	F1z	M1x	M1y	M1z	F2x	F2y	F2z	M2x	M2y	M2z	EC1x	EC1y	EC1z	EC2x	EC2y	EC2z
16.43	6.5716	754.2595	59.8933	-264.3008	-48.8099	671.9325	6.397	-3.6384	-1.2563	1.27	-4.4875	3.8965	-0.0592	0.0182	-0.0073	-0.0462	0.0165	0.9585
16.442	4.0019	743.862	60.2218	-260.5152	-49.3358	660.2324	4.1583	-1.529	-0.82848	1.2461	-2.9885	3.5031	-0.0592	0.0182	-0.0073	-0.0462	0.0165	0.9585
16.454	2.1282	733.2906	60.7997	-256.4752	-49.8881	648.2098	2.2287	0.32389	-0.47412	1.2542	-1.6825	3.2683	-0.0592	0.0182	-0.0073	-0.0462	0.0165	0.9585
16.466	1.0348	723.4755	61.5713	-252.5236	-50.4068	636.7691	0.72085	1.8111	-0.21533	1.2886	-0.65325	3.1944	-0.0592	0.0182	-0.0073	-0.0462	0.0165	0.9585
16.478	0.6208	715.1422	62.4896	-248.959	-50.8854	626.5891	-0.3515	2.9117	-0.040417	1.3401	0.082675	3.2313	-0.0592	0.0182	-0.0073	-0.0462	0.0165	0.9585
16.49	0.71978	708.8149	63.4597	-246.0167	-51.2874	618.1375	-1.0663	3.6674	0.061423	1.3987	0.57228	3.3504	-0.0592	0.0182	-0.0073	-0.0462	0.0165	0.9585
16.502	1.1615	704.807	64.4251	-243.853	-51.6093	611.667	-1.4952	4.1123	0.11494	1.4474	0.86328	3.4796	-0.0592	0.0182	-0.0073	-0.0462	0.0165	0.9585
16.514	1.8184	703.2665	65.3088	-242.5603	-51.8135	607.2535	-1.7555	4.2893	0.13307	1.4666	1.0261	3.5701	-0.0592	0.0182	-0.0073	-0.0462	0.0165	0.9585
16.526	2.6242	704.2003	66.0838	-242.1711	-51.8917	604.8445	-1.9109	4.1866	0.13217	1.4229	1.1085	3.5074	-0.0592	0.0182	-0.0073	-0.0462	0.0165	0.9585
16.538	3.5735	707.498	66.698	-242.6697	-51.7945	604.2771	-2.045	3.7791	0.12039	1.2806	1.1586	3.2098	-0.0592	0.0182	-0.0073	-0.0462	0.0165	0.9585
16.55	4.6922	712.9308	67.1384	-243.9932	-51.5011	605.3017	-2.1813	2.9882	0.10347	0.9925	1.1965	2.5311	-0.0592	0.0182	-0.0073	-0.0462	0.0165	0.9585
16.562	6.0363	720.1791	67.3782	-246.04	-50.9705	607.6133	-2.3443	1.7487	0.089576	0.51566	1.2323	1.3818	-0.0592	0.0182	-0.0073	-0.0462	0.0165	0.9585
16.574	7.6691	728.8242	67.4442	-248.6648	-50.2024	610.8446	-2.4781	-0.0080208	0.090538	-0.18525	1.2451	-0.32387	-0.0592	0.0182	-0.0073	-0.0462	0.0165	0.9585
16.586	9.6253	738.3741	67.3835	-251.6917	-49.2163	614.5797	-2.5193	-2.2579	0.11386	-1.1084	1.1991	-2.5523	-0.0592	0.0182	-0.0073	-0.0462	0.0165	0.9585
16.598	11.9194	748.2268	67.2647	-254.9001	-48.0568	618.3255	-2.308	-4.8872	0.1683	-2.204	1.0199	-5.2037	-0.0592	0.0182	-0.0073	-0.0462	0.0165	0.9585
16.61	14.5363	757.6839	67.1237	-258.0323	-46.7532	621.5453	-1.6582	-7.5707	0.25119	-3.3322	0.62903	-7.9315	-0.0592	0.0182	-0.0073	-0.0462	0.0165	0.9585
16.622	17.4389	765.8946	66.9322	-260.7794	-45.2922	623.5971	-0.31155	-9.7155	0.36614	-4.2317	-0.079644	-10.1375	-0.0592	0.0182	-0.0073	-0.0462	0.0165	0.9585
16.634	20.5806	771.9071	66.6023	-262.7975	-43.6255	623.7926	1.9776	-10.3143	0.50384	-4.4702	-1.1977	-10.7906	-0.0592	0.0182	-0.0073	-0.0462	0.0165	0.9585
16.646	23.9189	774.7409	66.0161	-263.7358	-41.689	621.4286	5.4523	-7.9135	0.65115	-3.4224	-2.8062	-8.4284	-0.0592	0.0182	-0.0073	-0.0462	0.0165	0.9585
16.658	27.4122	773.4766	65.096	-263.2621	-39.4541	615.8808	10.2189	-0.57667	0.77286	-0.25878	-4.9129	-1.0953	-0.0592	0.0182	-0.0073	-0.0462	0.0165	0.9585
16.67	31.0559	767.2856	63.8132	-261.0743	-36.9221	606.5977	16.1487	13.9979	0.82125	6.0063	-7.4103	13.5197	-0.0592	0.0182	-0.0073	-0.0462	0.0165	0.9585
16.682	34.8173	755.3963	62.1867	-256.8956	-34.1427	593.0856	22.6837	38.2078	0.71851	16.3945	-9.9828	37.8363	-0.0592	0.0182	-0.0073	-0.0462	0.0165	0.9585
16.694	38.6457	737.0325	60.2138	-250.4656	-31.1463	574.8346	28.681	74.0663	0.38395	31.7582	-12.0666	73.8965	-0.0592	0.0182	-0.0073	-0.0462	0.0165	0.9585
16.706	42.3944	711.465	57.8316	-241.5532	-27.9412	551.4026	32.3734	122.4493	-0.20961	52.4581	-12.8919	122.6014	-0.0592	0.0182	-0.0073	-0.0462	0.0165	0.9585
16.718	45.8074	678.0472	54.8974	-229.9717	-24.5053	522.3937	31.4271	182.0076	-1.1222	77.8948	-11.4338	182.611	-0.0592	0.0182	-0.0073	-0.0462	0.0165	0.9585
16.73	48.4555	636.3828	51.2466	-215.6248	-20.8521	487.622	23.8179	248.411	-2.5535	106.1882	-6.6819	249.5927	-0.0592	0.0182	-0.0073	-0.0462	0.0165	0.9585
16.742	49.8601	586.5382	46.8179	-198.5675	-17.0944	447.2218	10.8807	316.293	-5.2202	134.9697	1.4872	318.1847	-0.0592	0.0182	-0.0073	-0.0462	0.0165	0.9585
16.754	49.5682	529.3612	41.7301	-179.0945	-13.4638	401.9017	-3.982	381.3181	-9.1916	162.3703	11.7007	383.6752	-0.0592	0.0182	-0.0073	-0.0462	0.0165	0.9585
16.766	47.3395	466.4304	36.324	-157.7244	-10.2848	352.8609	-18.2598	441.7518	-14.3588	187.6188	22.763	444.0302	-0.0592	0.0182	-0.0073	-0.0462	0.0165	0.9585
16.778	43.1584	400.0097	30.941	-135.194	-7.7944	301.7597	-30.5015	497.6476	-19.8718	210.7899	33.2116	499.0619	-0.0592	0.0182	-0.0073	-0.0462	0.0165	0.9585
16.79	37.2341	332.8092	25.8677	-112.3949	-6.1212	250.5463	-40.2037	549.4126	-25.4865	232.0787	42.5876	549.2053	-0.0592	0.0182	-0.0073	-0.0462	0.0165	0.9585
16.802	29.9728	267.7405	21.2632	-90.3023	-5.2388	201.2988	-47.4967	597.0418	-30.794	251.545	50.5601	594.5334	-0.0592	0.0182	-0.0073	-0.0462	0.0165	0.9585
16.814	21.9952	207.6429	17.2154	-69.8769	-5.006	156.0388	-52.7064	640.4703	-35.8353	269.2076	57.3245	635.0635	-0.0592	0.0182	-0.0073	-0.0462	0.0165	0.9585
16.826	14.0828	154.736	13.7439	-51.8859	-5.1726	116.3225	-56.0313	679.7724	-40.3913	285.1296	62.7904	670.8908	-0.0592	0.0182	-0.0073	-0.0462	0.0165	0.9585
16.838	6.9617	110.2505	10.7996	-36.7693	-5.4492	82.9843	-57.7109	714.4884	-44.4019	299.147	67.0205	701.6712	-0.0592	0.0182	-0.0073	-0.0462	0.0165	0.9585
16.85	1.158	74.4577	8.2971	-24.634	-5.5937	56.1759	-58.0675	743.6654	-47.8282	310.881	70.1202	726.6336	-0.0592	0.0182	-0.0073	-0.0462	0.0165	0.9585
16.862	-3.0325	46.8392	6.1232	-15.3143	-5.4192	35.4913	-57.4576	766.3626	-50.7356	319.9279	72.3133	745.0363	-0.0592	0.0182	-0.0073	-0.0462	0.0165	0.9585
16.874	-5.4702	26.4816	4.2344	-8.495	-4.8544	20.236	-56.2118	781.9072	-53.1394	326.0153	73.7543	756.3872	-0.0592	0.0182	-0.0073	-0.0462	0.0165	0.9585
16.886	-6.2121	12.2466	2.6051	-3.7765	-3.9085	9.5621	-54.4585	790.2082	-55.0376	329.1087	74.5014	760.703	-0.0592	0.0182	-0.0073	-0.0462	0.0165	0.9585
16.898	-5.6307	3.0005	1.2673	-0.75661	-2.7375	2.6013	-52.2161	791.6872	-56.4457	329.3914	74.5775	758.4261	-0.0592	0.0182	-0.0073	-0.0462	0.0165	0.9585
16.91	-4.4142	-2.2542	0.27053	0.92678	-1.6034	-1.37	-49.5159	787.146	-57.2861	327.2261	73.917	750.3031	-0.0592	0.0182	-0.0073	-0.0462	0.0165	0.9585
16.922	-3.0006	-4.6571	-0.38937	1.6631	-0.6545	-3.1985	-46.3791	777.8868	-57.5954	323.168	72.5761	737.5822	-0.0592	0.0182	-0.0073	-0.0462	0.0165	0.9585
16.934	-1.6971	-5.1732	-0.78318	1.7828	0.061435	-3.5939	-42.9254	765.6012	-57.3519	317.935	70.5947	721.8497	-0.0592	0.0182	-0.0073	-0.0462	0.0165	0.9585
16.946	-0.62817	-4.6122	-0.96029	1.5558	0.53304	-3.2012	-39.3747	752.2032	-56.6924	312.328	68.1917	704.9012	-0.0592	0.0182	-0.0073	-0.0462	0.0165	0.9585
16.958	0.15128	-3.5703	-1.0065	1.179	0.81269	-2.4476	-35.8797	739.6662	-55.6997	307.1516	65.5203	688.5983	-0.0592	0.0182	-0.0073	-0.0462	0.0165	0.9585
16.97	0.67266	-2.423	-0.9582	0.77564	0.93547	-1.6303	-32.6713	729.6106	-54.5357	303.0672	62.8165	674.4704	-0.0592	0.0182	-0.0073	-0.0462	0.0165	0.9585
16.982	0.96496	-1.3902	-0.87412	0.41609	0.96022	-0.88904	-29.918	723.2739	-53.2458	300.5656	60.1888	663.6906	-0.0592	0.0182	-0.0073	-0.0462	0.0165	0.9585
16.994	1.1146	-0.5762	-0.76971	0.13284	0.92162	-0.30382	-27.7081	721.3503	-51.92	299.9005	57.7599	656.9345	-0.0592	0.0182	-0.0073	-0.0462	0.0165	0.9585
17.006	1.1514	0.029396	-0.67263	-0.077608	0.85257	0.1407	-26.0835	723.8432	-50.5672	301.0466	55.5498	654.2187	-0.0592	0.0182	-0.0073	-0.0462	0.0165	0.9585
17.018	1.1322	0.43057	-0.58668	-0.22114	0.77277	0.42945	-24.9435	730.2161	-49.2728	303.7395	53.6006	655.0518	-0.0592	0.0182	-0.0073	-0.0462	0.0165	0.9585
17.03	1.0836	0.69622	-0.518	-0.31952	0.69579	0.63019	-24.1274	739.4793	-48.0928	307.5312	51.891	658.5251	-0.0592	0.0182	-0.0073	-0.0462	0.0165	0.9585
17.042	1.0241	0.86527	-0.46118	-0.3869	0.62269	0.76542	-23.4244	750.3773	-47.101	311.8696	50.3984	663.4919	-0.0592	0.0182	-0.0073	-0.0462	0.0165	0.9585
17.054	0.9572	0.97141	-0.41995	-0.43243	0.55942	0.87455	-22.627	761.6308	-46.3467	316.1905	49.0705	668.7972	-0.0592	0.0182	-0.0073	-0.0462	0.0165	0.9585
17.066	0.8988	1.0505	-0.39507	-0.4648	0.51146	0.97843	-21.5323	771.9609	-45.8519	319.9495	47.842	673.289	-0.0592	0.0182	-0.0073	-0.0462	0.0165	0.9585
17.078	0.8382	1.1063	-0.38422	-0.48388	0.4752	1.072	-20.0093	780.2584	-45.6123	322.6818	46.6515	676.0091	-0.0592	0.0182	-0.0073	-0.0462	0.0165	0.9585
17.09	0.76936	1.1262	-0.38752	-0.48642	0.45132	1.1322	-17.9481	785.6862	-45.586	324.0445	45.4255	676.2309	-0.0592	0.0182	-0.0073	-0.0462	0.0165	0.9585
17.102	0.68859	1.0763	-0.39822	-0.46278	0.43258	1.1202	-15.3911	787.6827	-45.7195	323.8293	44.1329	673.5052	-0.0592	0.0182	-0.0073	-0.0462	0.0165	0.9585
17.114	0.57762	0.89968	-0.41482	-0.39611	0.41176	0.97463	-12.3967	786.0467	-45.9339	321.9932	42.7323	667.6897	-0.0592	0.0182	-0.0073	-0.0462	0.0165	0.9585
17.126	0.44143	0.52662	-0.42941	-0.26291	0.37717	0.62466	-9.1045	781.0387	-46.1819	318.6856	41.2412	659.0722	-0.0592	0.0182	-0.0073	-0.0462	0.0165	0.9585
